# xmcd
#
# Track frame offsets:
#	150
#	12685
#	28269
#	45863
#	61181
#	73826
#	93313
#	107153
#	122190
#	136365
#	151800
#
# Disc length: 2271 seconds
#
# Revision: 2
# Processed by: cddbd v1.5.2PL0 Copyright (c) Steve Scherf et al.
# Submitted via: audiograbber 1.83.01
#
DISCID=9308dd0b
DTITLE=Sammy Kershaw - Better Than I Used To Be
DYEAR=2010
DGENRE=Country
TTITLE0=That Train
TTITLE1=Better than I Used to Be
TTITLE2=Saltwater Cowboy
TTITLE3=Everybody Wants My Girl
TTITLE4=Through the Eyes of A Woman
TTITLE5=The Snow White Rows of Arlington
TTITLE6=I Aint Falling for that
TTITLE7=Like I Wasnt Even There
TTITLE8=The Cover of the Rolling Stone (Feat. Jamey Johnson)
TTITLE9=I See Red
TTITLE10=Takin the Long Way Home
EXTD=
EXTT0=
EXTT1=
EXTT2=
EXTT3=
EXTT4=
EXTT5=
EXTT6=
EXTT7=
EXTT8=
EXTT9=
EXTT10=
PLAYORDER=
